# This file uses centimeters as units for non-parametric coordinates.

mtllib SemiCircularPrism.mtl
g default
v -0.500000 -0.500000 1.000000
v 0.500000 -0.500000 1.000000
v -0.500000 -0.500000 -1.000000
v 0.500000 -0.500000 -1.000000
v -0.500000 0.293050 -0.499950
v -0.500000 0.293050 0.499950
v -0.500000 0.405411 0.353518
v -0.500000 0.476044 0.182994
v -0.500000 0.500136 -0.000000
v -0.500000 0.476044 -0.182994
v -0.500000 0.405411 -0.353518
v 0.500000 0.293050 -0.499950
v 0.500000 0.405411 -0.353518
v 0.500000 0.476044 -0.182994
v 0.500000 0.500136 -0.000000
v 0.500000 0.476044 0.182994
v 0.500000 0.405411 0.353518
v 0.500000 0.293050 0.499950
v -0.500000 -0.122197 0.825259
v -0.500000 0.004574 0.744209
v -0.500000 0.122358 0.650579
v -0.500000 -0.256616 0.892871
v 0.500000 0.004574 0.744209
v 0.500000 -0.122197 0.825259
v 0.500000 -0.256616 0.892871
v 0.500000 0.122358 0.650579
v -0.500000 0.004574 -0.744210
v -0.500000 -0.122197 -0.825259
v -0.500000 -0.256617 -0.892871
v -0.500000 0.122358 -0.650579
v 0.500000 -0.122197 -0.825259
v 0.500000 0.004574 -0.744210
v 0.500000 0.122358 -0.650579
v 0.500000 -0.256617 -0.892871
vt 0.625000 0.750000
vt 0.375000 1.000000
vt 0.625000 1.000000
vt 0.333329 0.541646
vt 0.322394 0.229745
vt 0.308485 0.284920
vt 0.291667 0.333333
vt 0.303280 0.391398
vt 0.316869 0.459344
vt 0.683131 0.459344
vt 0.696720 0.391398
vt 0.333329 0.166683
vt 0.375000 0.000000
vt 0.636226 0.693868
vt 0.375000 0.750000
vt 0.666671 0.541646
vt 0.343748 0.593740
vt 0.343748 0.125008
vt 0.636226 0.044906
vt 0.363774 0.693868
vt 0.656252 0.593740
vt 0.147453 0.044906
vt 0.125000 0.000000
vt 0.363774 0.044906
vt 0.268441 0.286882
vt 0.241262 0.232525
vt 0.208342 0.166683
vt 0.187504 0.125008
vt 0.812496 0.125008
vt 0.791658 0.166683
vt 0.758738 0.232525
vt 0.731559 0.286882
vt 0.708333 0.333333
vt 0.691317 0.287298
vt 0.677266 0.232787
vt 0.666671 0.166683
vt 0.656252 0.125008
vt 0.625000 0.000000
vt 0.875000 0.000000
vt 0.852547 0.044906
vt 0.358758 0.071882
vt 0.352117 0.098564
vt 0.648338 0.098114
vt 0.642121 0.070621
vt 0.174764 0.099527
vt 0.350118 0.625591
vt 0.161385 0.072771
vt 0.356807 0.659037
vt 0.643193 0.659037
vt 0.838615 0.072771
vt 0.649882 0.625591
vt 0.825236 0.099527
vn 0.000000 0.646196 0.763172
vn 0.000000 0.646196 0.763172
vn 0.000000 0.723971 0.689831
vn 0.000000 0.723971 0.689831
vn 0.000000 0.419792 -0.907620
vn 0.000000 0.419792 -0.907620
vn 0.000000 0.402864 -0.915260
vn 0.000000 0.402864 -0.915260
vn 0.000000 -1.000000 0.000000
vn 0.000000 -1.000000 0.000000
vn 0.000000 -1.000000 0.000000
vn 0.000000 -1.000000 0.000000
vn 0.000000 0.723970 -0.689831
vn 0.000000 0.866025 -0.500000
vn 0.000000 0.866025 -0.500000
vn 0.000000 0.723970 -0.689831
vn 0.000000 0.965926 -0.258819
vn 0.000000 0.965926 -0.258819
vn 0.000000 1.000000 0.000000
vn 0.000000 1.000000 0.000000
vn 0.000000 0.965926 0.258819
vn 0.000000 0.965926 0.258819
vn 0.000000 0.866025 0.500000
vn 0.000000 0.866025 0.500000
vn 0.000000 0.402864 0.915260
vn 0.000000 0.402864 0.915260
vn 0.000000 0.419792 0.907620
vn 0.000000 0.419792 0.907620
vn 0.000000 0.646195 -0.763172
vn 0.000000 0.646195 -0.763172
vn 0.000000 0.581232 0.813738
vn 0.000000 0.581232 0.813738
vn 0.000000 0.494660 0.869087
vn 0.000000 0.494660 0.869087
vn 0.000000 0.494659 -0.869087
vn 0.000000 0.494659 -0.869087
vn 0.000000 0.581232 -0.813738
vn 0.000000 0.581232 -0.813738
vn -1.000000 0.000000 -0.000000
vn -1.000000 0.000000 -0.000000
vn -1.000000 0.000000 -0.000000
vn -1.000000 0.000000 -0.000000
vn -1.000000 0.000000 -0.000000
vn -1.000000 0.000000 -0.000000
vn -1.000000 0.000000 -0.000000
vn -1.000000 0.000000 -0.000000
vn -1.000000 0.000000 -0.000000
vn -1.000000 0.000000 -0.000000
vn -1.000000 0.000000 -0.000000
vn -1.000000 0.000000 -0.000000
vn -1.000000 0.000000 -0.000000
vn -1.000000 0.000000 -0.000000
vn -1.000000 0.000000 -0.000000
vn -1.000000 0.000000 -0.000000
vn -1.000000 0.000000 -0.000000
vn 1.000000 -0.000000 0.000000
vn 1.000000 -0.000000 0.000000
vn 1.000000 -0.000000 0.000000
vn 1.000000 -0.000000 0.000000
vn 1.000000 -0.000000 0.000000
vn 1.000000 -0.000000 0.000000
vn 1.000000 -0.000000 0.000000
vn 1.000000 -0.000000 0.000000
vn 1.000000 -0.000000 0.000000
vn 1.000000 -0.000000 0.000000
vn 1.000000 -0.000000 0.000000
vn 1.000000 -0.000000 0.000000
vn 1.000000 -0.000000 0.000000
vn 1.000000 -0.000000 0.000000
vn 1.000000 -0.000000 0.000000
vn 1.000000 -0.000000 0.000000
vn 1.000000 -0.000000 0.000000
s 1
g SemiCirclePrism
usemtl initialShadingGroup
f 21/18/1 26/37/2 18/36/3 6/12/4
f 29/20/5 34/14/6 4/1/7 3/15/8
s off
f 3/15/9 4/1/10 2/3/11 1/2/12
s 1
f 5/4/13 11/9/14 13/10/15 12/16/16
f 11/9/14 10/8/17 14/11/18 13/10/15
f 10/8/17 9/7/19 15/33/20 14/11/18
f 9/7/19 8/6/21 16/34/22 15/33/20
f 8/6/21 7/5/23 17/35/24 16/34/22
f 7/5/23 6/12/4 18/36/3 17/35/24
f 1/13/25 2/38/26 25/19/27 22/24/28
f 5/4/13 12/16/16 33/21/29 30/17/30
f 21/18/1 20/42/31 23/43/32 26/37/2
f 20/42/31 19/41/33 24/44/34 23/43/32
f 19/41/33 22/24/28 25/19/27 24/44/34
f 29/20/5 28/48/35 31/49/36 34/14/6
f 28/48/35 27/46/37 32/51/38 31/49/36
f 27/46/37 30/17/30 33/21/29 32/51/38
s off
f 27/45/39 28/47/40 29/22/41 3/23/42 1/13/43 22/24/44 19/41/45 20/42/46 21/18/47 6/12/48 7/5/49 8/6/50 9/7/51 10/25/52 11/26/53 5/27/54 30/28/55
f 31/50/56 32/52/57 33/29/58 12/30/59 13/31/60 14/32/61 15/33/62 16/34/63 17/35/64 18/36/65 26/37/66 23/43/67 24/44/68 25/19/69 2/38/70 4/39/71 34/40/72
